<?xml version="1.0" encoding="UTF-8"?>
<svg id="Camada_2" data-name="Camada 2" xmlns="http://www.w3.org/2000/svg" viewBox="0 0 739 868.51">
  <defs>
    <style>
      .cls-1, .cls-2, .cls-3 {
        fill: #2e3192;
      }

      .cls-2 {
        font-size: 100px;
      }

      .cls-2, .cls-3 {
        font-family: RemoraSansW1-Demi, 'Remora Sans W1';
        font-weight: 300;
      }

      .cls-4 {
        fill: none;
        stroke: #2e3192;
        stroke-miterlimit: 10;
        stroke-width: 10px;
      }

      .cls-3 {
        font-size: 94px;
      }
    </style>
  </defs>
  <g id="Camada_1-2" data-name="Camada 1">
    <g>
      <g>
        <path class="cls-1" d="M411.95,465.68c-8.87,1.79-17.72,3.08-26.4,3.61-30.8,1.87-47.39-22.28-54.84-49.09-8.1-29.12-14.12-69.7-10.56-99.35,1.71-14.23,7.12-28.11,17.82-37.97,2.11-1.94,4.34-3.65,6.66-5.16-12.43,1.75-24.39,5.87-33.9,14.64-10.7,9.86-16.11,23.74-17.82,37.97-3.55,29.64,2.47,70.23,10.56,99.35,7.45,26.81,24.03,50.95,54.84,49.09,8.68-.53,17.53-1.82,26.4-3.61.32,16.45-1,32.88-4.03,49.13-.43,2.3,2.13,5.18,4.47,3.44,8.51-6.31,16.54-13.18,24.06-20.54,2.11-13.76,3.01-27.62,2.74-41.5Z"/>
        <path class="cls-1" d="M524.39,305.03c-3.75-24.41-21.34-29.93-43.15-33.99-28.04-5.21-56.6-7.78-85.12-7.63-17.27.09-35.33,2.74-48.98,13.98-.7.58-1.39,1.17-2.07,1.79-10.7,9.86-16.11,23.74-17.82,37.97-3.55,29.64,2.47,70.23,10.56,99.35,7.45,26.81,24.03,50.95,54.84,49.09,8.68-.53,17.53-1.82,26.4-3.61.25,12.45-.45,24.89-2.12,37.25-.54,3.97-1.17,7.93-1.91,11.88-.43,2.3,2.13,5.18,4.47,3.44,25.87-19.17,47.35-43.45,63.06-71.5,10.36-3.82,20.63-8.65,27.61-17.54,8.21-10.46,10.73-23.96,12.43-36.8,3.25-27.01,5.95-56.63,1.8-83.69ZM431.8,335.28c0-3.38,2.76-5.88,6.02-6.02,3.25-.15,6.02,2.87,6.02,6.02v4.82c0,3.38-2.76,5.88-6.02,6.02-3.25.15-6.02-2.87-6.02-6.02v-4.82ZM398.07,335.28c0-3.38,2.76-5.88,6.02-6.02,3.25-.15,6.02,2.87,6.02,6.02v4.82c0,3.38-2.76,5.88-6.02,6.02-3.25.15-6.02-2.87-6.02-6.02v-4.82ZM415.16,416.32c-15.1-3.1-29.58-19.15-26.9-31,4.9-21.65,67.67-31.86,75.58-17.68,6.77,12.15-19.77,54.62-48.68,48.68Z"/>
        <g>
          <path class="cls-1" d="M310.07,274.54h0c-2.41.82-4.89.06-5.65-1.74l-21.76-51.75c-1.47-3.5,1.22-7.79,5.9-9.39h0c4.68-1.6,9.44.14,10.42,3.81l14.48,54.24c.5,1.89-.99,4.01-3.4,4.84Z"/>
          <path class="cls-1" d="M280.67,304.2h0c-.5,2.5-2.41,4.26-4.35,4.01l-55.68-7.18c-3.77-.49-6.12-4.97-5.15-9.82h0c.97-4.85,4.86-8.09,8.53-7.09l54.17,14.72c1.89.51,2.97,2.87,2.48,5.37Z"/>
          <path class="cls-1" d="M285.11,283.64h0c-1.85,1.75-4.43,2.08-5.86.76l-41.28-38.05c-2.79-2.58-2.12-7.59,1.47-10.99h0c3.6-3.4,8.64-3.79,11.06-.86l35.69,43.33c1.24,1.51.77,4.06-1.08,5.81Z"/>
        </g>
      </g>
      <text class="cls-2" transform="translate(137.95 260.25) rotate(-60)"><tspan x="0" y="0">C</tspan></text>
      <text class="cls-2" transform="translate(163.07 217.79) rotate(-52.25)"><tspan x="0" y="0">Í</tspan></text>
      <text class="cls-2" transform="translate(173.83 201.37) rotate(-44.43)"><tspan x="0" y="0">N</tspan></text>
      <text class="cls-2" transform="translate(208.93 166.31) rotate(-33.97)"><tspan x="0" y="0">T</tspan></text>
      <text class="cls-2" transform="translate(244.61 140.92) rotate(-23.22)"><tspan x="0" y="0">H</tspan></text>
      <text class="cls-2" transform="translate(292.87 120.91) rotate(-15.08)"><tspan x="0" y="0">I</tspan></text>
      <text class="cls-2" transform="translate(311.31 114.29) rotate(-7.11)"><tspan x="0" y="0">A</tspan></text>
      <text class="cls-2" transform="translate(362.19 108.56) rotate(.93)"><tspan x="0" y="0"> </tspan></text>
      <text class="cls-2" transform="translate(375.41 107.07) rotate(7.3)"><tspan x="0" y="0">G</tspan></text>
      <text class="cls-2" transform="translate(425.61 112.7) rotate(18.67)"><tspan x="0" y="0">A</tspan></text>
      <text class="cls-2" transform="translate(473.36 128.24) rotate(29.57)"><tspan x="0" y="0">B</tspan></text>
      <text class="cls-2" transform="translate(514.03 150.34) rotate(40.24)"><tspan x="0" y="0">R</tspan></text>
      <text class="cls-2" transform="translate(551.46 182.7) rotate(47.97)"><tspan x="0" y="0">I</tspan></text>
      <text class="cls-2" transform="translate(565.51 196.65) rotate(54.92)"><tspan x="0" y="0">E</tspan></text>
      <text class="cls-2" transform="translate(589.82 230.34) rotate(64.06)"><tspan x="0" y="0">L</tspan></text>
      <text class="cls-3" transform="translate(59.31 497.22) rotate(59.63)"><tspan x="0" y="0">E</tspan></text>
      <text class="cls-3" transform="translate(86.07 542.6) rotate(50.38)"><tspan x="0" y="0">N</tspan></text>
      <text class="cls-3" transform="translate(124.16 587.83) rotate(40.83)"><tspan x="0" y="0">G</tspan></text>
      <text class="cls-3" transform="translate(167.25 624.25) rotate(32.12)"><tspan x="0" y="0">L</tspan></text>
      <text class="cls-3" transform="translate(206.31 648.09) rotate(26.09)"><tspan x="0" y="0">I</tspan></text>
      <text class="cls-3" transform="translate(230 660.2) rotate(20)"><tspan x="0" y="0">S</tspan></text>
      <text class="cls-3" transform="translate(276.7 677.26) rotate(10.85)"><tspan x="0" y="0">H</tspan></text>
      <text class="cls-3" transform="translate(333.77 687.02) rotate(4.32)"><tspan x="0" y="0"> </tspan></text>
      <text class="cls-3" transform="translate(354.39 689.4) rotate(-1.87)"><tspan x="0" y="0">T</tspan></text>
      <text class="cls-3" transform="translate(411.41 686.95) rotate(-10.75)"><tspan x="0" y="0">E</tspan></text>
      <text class="cls-3" transform="translate(461.31 677.45) rotate(-19.88)"><tspan x="0" y="0">A</tspan></text>
      <text class="cls-3" transform="translate(517.32 656.55) rotate(-29.48)"><tspan x="0" y="0">C</tspan></text>
      <text class="cls-3" transform="translate(565.62 628.99) rotate(-39.19)"><tspan x="0" y="0">H</tspan></text>
      <text class="cls-3" transform="translate(612.14 590.08) rotate(-48.33)"><tspan x="0" y="0">E</tspan></text>
      <text class="cls-3" transform="translate(645.74 552.23) rotate(-57.3)"><tspan x="0" y="0">R</tspan></text>
      <circle class="cls-1" cx="78.64" cy="369.5" r="14.94"/>
      <circle class="cls-1" cx="660.39" cy="369.5" r="14.94"/>
      <circle class="cls-4" cx="369.5" cy="376.77" r="226.18"/>
      <circle class="cls-4" cx="369.5" cy="369.5" r="364.5"/>
    </g>
  </g>
</svg>