<?xml version="1.0" encoding="UTF-8"?>
<svg id="Camada_2" data-name="Camada 2" xmlns="http://www.w3.org/2000/svg" viewBox="0 0 706.45 720">
  <defs>
    <style>
      .cls-1 {
        fill: #fff;
      }
    </style>
  </defs>
  <g id="Camada_1-2" data-name="Camada 1">
    <g>
      <path class="cls-1" d="M446.43,577.96c-20.13,4.07-40.22,6.99-59.92,8.19-69.92,4.23-107.56-50.58-124.48-111.43-18.38-66.1-32.04-158.22-23.98-225.5,3.87-32.3,16.15-63.82,40.44-86.19,4.78-4.41,9.84-8.29,15.12-11.72-28.22,3.98-55.35,13.33-76.95,33.22-24.28,22.37-36.56,53.88-40.44,86.19-8.07,67.29,5.6,159.4,23.98,225.5,16.92,60.85,54.56,115.66,124.48,111.43,19.7-1.19,39.79-4.12,59.92-8.19.74,37.34-2.27,74.63-9.16,111.52-.97,5.22,4.83,11.75,10.15,7.81,19.32-14.32,37.55-29.91,54.6-46.63,4.79-31.22,6.84-62.69,6.22-94.2Z"/>
      <path class="cls-1" d="M701.66,213.32c-8.5-55.4-48.45-67.94-97.94-77.14-63.65-11.84-128.47-17.65-193.22-17.33-39.19.2-80.19,6.21-111.18,31.73-1.59,1.31-3.16,2.66-4.7,4.07-24.28,22.37-36.57,53.88-40.44,86.19-8.07,67.29,5.6,159.4,23.98,225.5,16.92,60.85,54.56,115.66,124.48,111.43,19.7-1.19,39.79-4.12,59.92-8.19.56,28.27-1.03,56.5-4.82,84.55-1.22,9.01-2.66,18-4.33,26.97-.97,5.22,4.83,11.75,10.15,7.81,58.71-43.52,107.49-98.64,143.14-162.29,23.51-8.67,46.84-19.63,62.67-39.81,18.64-23.74,24.35-54.39,28.21-83.53,7.37-61.31,13.51-128.54,4.08-189.97ZM491.48,281.99c0-7.66,6.26-13.34,13.67-13.67,7.38-.33,13.67,6.52,13.67,13.67v10.94c0,7.66-6.26,13.34-13.67,13.67-7.38.33-13.67-6.52-13.67-13.67v-10.94ZM414.94,281.99c0-7.66,6.26-13.34,13.67-13.67,7.38-.33,13.67,6.52,13.67,13.67v10.94c0,7.66-6.26,13.34-13.67,13.67-7.38.33-13.67-6.52-13.67-13.67v-10.94ZM453.73,465.92c-34.27-7.04-67.15-43.46-61.06-70.37,11.11-49.15,153.6-72.32,171.56-40.13,15.38,27.58-44.88,123.97-110.49,110.49Z"/>
      <g>
        <path class="cls-1" d="M215.17,144.1h0c-5.47,1.87-11.1.13-12.82-3.96l-49.4-117.47c-3.34-7.95,2.77-17.68,13.4-21.32h0c10.63-3.64,21.42.31,23.65,8.64l32.88,123.12c1.14,4.29-2.24,9.11-7.71,10.98Z"/>
        <path class="cls-1" d="M148.44,211.42h0c-1.13,5.67-5.46,9.66-9.86,9.1l-126.38-16.3c-8.56-1.1-13.89-11.28-11.7-22.3H.49c2.2-11.02,11.03-18.37,19.36-16.1l122.97,33.42c4.28,1.16,6.75,6.52,5.62,12.18Z"/>
        <path class="cls-1" d="M158.53,164.77h0c-4.2,3.97-10.04,4.73-13.31,1.72L51.52,80.13c-6.34-5.85-4.82-17.24,3.34-24.96h0c8.16-7.72,19.62-8.61,25.1-1.95l81.02,98.36c2.82,3.42,1.74,9.22-2.46,13.19Z"/>
      </g>
    </g>
  </g>
</svg>